<?xml version="1.0" standalone="no"?>
<!DOCTYPE svg PUBLIC "-//W3C//DTD SVG 20010904//EN"
 "http://www.w3.org/TR/2001/REC-SVG-20010904/DTD/svg10.dtd">
<svg version="1.0" xmlns="http://www.w3.org/2000/svg"
 width="331.000000pt" height="152.000000pt" viewBox="0 0 331.000000 152.000000"
 preserveAspectRatio="xMidYMid meet">

<g transform="translate(0.000000,152.000000) scale(0.100000,-0.100000)"
fill="#000000" stroke="none">
<path d="M679 983 c-17 -15 -38 -41 -45 -58 -13 -30 -13 -30 -14 23 l0 52 -55
0 -55 0 0 -245 0 -245 59 0 59 0 4 148 c3 116 8 154 22 180 20 39 67 62 114
55 l32 -5 0 61 0 61 -44 0 c-34 0 -52 -7 -77 -27z"/>
<path d="M1647 989 c-21 -11 -41 -27 -44 -34 -9 -25 -23 -16 -23 15 0 30 -1
30 -55 30 l-55 0 0 -245 0 -245 59 0 59 0 3 163 c4 140 7 167 24 196 22 38 62
56 101 47 44 -11 54 -56 54 -241 l0 -165 59 0 59 0 4 163 c3 137 7 167 23 194
22 38 64 58 100 49 45 -11 55 -55 55 -241 l0 -165 61 0 60 0 -3 208 c-3 184
-5 210 -22 235 -26 39 -66 57 -126 57 -62 0 -110 -19 -138 -54 -21 -27 -21
-27 -32 -6 -32 59 -147 79 -223 39z"/>
<path d="M2530 995 c52 -16 107 -65 126 -112 18 -41 17 -121 0 -152 -12 -22
-11 -29 11 -63 14 -21 29 -38 34 -38 4 0 22 12 40 27 84 71 78 185 -16 278
-56 57 -103 75 -186 74 l-54 0 45 -14z"/>
<path d="M880 817 c0 -170 2 -186 23 -227 12 -24 34 -52 48 -63 59 -42 172
-29 233 28 l26 24 0 -34 0 -35 60 0 60 0 0 245 0 245 -59 0 -59 0 -4 -152 c-4
-165 -14 -202 -62 -234 -37 -24 -95 -15 -120 19 -19 26 -21 42 -21 197 l0 170
-62 0 -63 0 0 -183z"/>
<path d="M2388 945 c-64 -44 -100 -144 -83 -232 l7 -38 15 50 c8 28 26 64 39
81 44 58 146 90 209 65 22 -9 45 4 45 25 0 7 -16 25 -36 41 -29 21 -50 28 -98
31 -53 3 -66 0 -98 -23z"/>
<path d="M2354 724 c-33 -129 100 -238 250 -204 54 12 125 56 149 94 l17 25
-43 -25 c-48 -27 -119 -32 -170 -10 -40 16 -96 73 -104 104 -6 24 -38 42 -73
42 -13 0 -22 -9 -26 -26z"/>
</g>
</svg>
